<svg width="52" height="52" viewBox="0 0 52 52" fill="none" xmlns="http://www.w3.org/2000/svg">
<g id="facebook (1) 1" clip-path="url(#clip0_39_38)">
<g id="Group">
<g id="Group_2">
<path id="Vector" d="M45.9062 0H6.09375C2.73366 0 0 2.73366 0 6.09375V45.9062C0 49.2663 2.73366 52 6.09375 52H45.9062C49.2663 52 52 49.2663 52 45.9062V6.09375C52 2.73366 49.2663 0 45.9062 0ZM47.9375 45.9062C47.9375 47.0263 47.0263 47.9375 45.9062 47.9375H34.3281V31.3828H40.6037L41.6406 25.0859H34.3281V20.7188C34.3281 18.9947 35.651 17.6719 37.375 17.6719H41.5391V11.375H37.375C32.2031 11.375 28.0335 15.5645 28.0335 20.7364V25.0859H21.9375V31.3828H28.0335V47.9375H6.09375C4.97372 47.9375 4.0625 47.0263 4.0625 45.9062V6.09375C4.0625 4.97372 4.97372 4.0625 6.09375 4.0625H45.9062C47.0263 4.0625 47.9375 4.97372 47.9375 6.09375V45.9062Z" fill="white"/>
</g>
</g>
</g>
<defs>
<clipPath id="clip0_39_38">
<rect width="52" height="52" fill="white"/>
</clipPath>
</defs>
</svg>
