<svg width="170" height="29" viewBox="0 0 170 29" fill="none" xmlns="http://www.w3.org/2000/svg">
<g id="Group 25">
<path id="Star 1" d="M15.7521 2.14877L18.6192 10.4825L18.7353 10.8198H19.092H28.2877L20.8733 15.9075L20.5596 16.1227L20.6834 16.4824L23.5308 24.759L16.035 19.6156L15.7521 19.4215L15.4692 19.6156L7.97346 24.759L10.8209 16.4824L10.9446 16.1227L10.631 15.9075L3.21658 10.8198H12.4123H12.769L12.8851 10.4825L15.7521 2.14877Z" fill="white" stroke="#DDAF2A"/>
<path id="Star 2" d="M52.1157 2.14877L54.9828 10.4825L55.0989 10.8198H55.4556H64.6513L57.2369 15.9075L56.9232 16.1227L57.047 16.4824L59.8944 24.759L52.3986 19.6156L52.1157 19.4215L51.8329 19.6156L44.3371 24.759L47.1845 16.4824L47.3083 16.1227L46.9946 15.9075L39.5802 10.8198H48.7759H49.1326L49.2487 10.4825L52.1157 2.14877Z" fill="white" stroke="#DDAF2A"/>
<path id="Star 3" d="M88.4794 2.14877L91.3465 10.4825L91.4625 10.8198H91.8193H101.015L93.6005 15.9075L93.2869 16.1227L93.4106 16.4824L96.2581 24.759L88.7623 19.6156L88.4794 19.4215L88.1965 19.6156L80.7007 24.759L83.5482 16.4824L83.6719 16.1227L83.3583 15.9075L75.9438 10.8198H85.1395H85.4963L85.6123 10.4825L88.4794 2.14877Z" fill="white" stroke="#DDAF2A"/>
<path id="Star 4" d="M124.843 2.14877L127.71 10.4825L127.826 10.8198H128.183H137.379L129.964 15.9075L129.65 16.1227L129.774 16.4824L132.622 24.759L125.126 19.6156L124.843 19.4215L124.56 19.6156L117.064 24.759L119.912 16.4824L120.036 16.1227L119.722 15.9075L112.307 10.8198H121.503H121.86L121.976 10.4825L124.843 2.14877Z" fill="white" stroke="#DDAF2A"/>
<path id="Star 5" d="M154.595 2.14877L157.462 10.4825L157.578 10.8198H157.935H167.131L159.716 15.9075L159.403 16.1227L159.526 16.4824L162.374 24.759L154.878 19.6156L154.595 19.4215L154.312 19.6156L146.816 24.759L149.664 16.4824L149.788 16.1227L149.474 15.9075L142.06 10.8198H151.255H151.612L151.728 10.4825L154.595 2.14877Z" fill="white" stroke="#DDAF2A"/>
</g>
</svg>
