<svg width="190" height="24" viewBox="0 0 190 24" fill="none" xmlns="http://www.w3.org/2000/svg">
<g id="Group 2">
<g id="Group 1">
<circle id="Ellipse 1" cx="66.5" cy="11.5" r="7" fill="white" stroke="white"/>
<circle id="Ellipse 2" cx="95.5" cy="11.5" r="7" stroke="white"/>
<circle id="Ellipse 3" cx="124.5" cy="11.5" r="7" stroke="white"/>
</g>
<path id="Arrow 1" d="M0.939339 10.9393C0.353554 11.5251 0.353554 12.4749 0.939339 13.0607L10.4853 22.6066C11.0711 23.1924 12.0208 23.1924 12.6066 22.6066C13.1924 22.0208 13.1924 21.0711 12.6066 20.4853L4.12132 12L12.6066 3.51472C13.1924 2.92893 13.1924 1.97918 12.6066 1.3934C12.0208 0.807609 11.0711 0.807609 10.4853 1.3934L0.939339 10.9393ZM39 10.5L2 10.5L2 13.5L39 13.5L39 10.5Z" fill="white"/>
<path id="Arrow 2" d="M189.061 13.0607C189.646 12.4749 189.646 11.5251 189.061 10.9393L179.515 1.3934C178.929 0.807611 177.979 0.807611 177.393 1.3934C176.808 1.97919 176.808 2.92893 177.393 3.51472L185.879 12L177.393 20.4853C176.808 21.0711 176.808 22.0208 177.393 22.6066C177.979 23.1924 178.929 23.1924 179.515 22.6066L189.061 13.0607ZM151 13.5L188 13.5V10.5L151 10.5V13.5Z" fill="white"/>
</g>
</svg>
