<svg width="52" height="52" viewBox="0 0 52 52" fill="none" xmlns="http://www.w3.org/2000/svg">
<g id="instagram (1) 1" clip-path="url(#clip0_39_57)">
<path id="Vector" d="M51.9491 15.2881C51.8273 12.5252 51.3805 10.6257 50.7404 8.97972C50.0801 7.23258 49.0643 5.66837 47.7334 4.36804C46.4331 3.04747 44.8586 2.02133 43.1317 1.37136C41.4762 0.731314 39.5866 0.28451 36.8237 0.16269C34.0401 0.030554 33.1564 0 26.0964 0C19.0364 0 18.1528 0.030554 15.3795 0.152374C12.6165 0.274193 10.717 0.721393 9.07145 1.36104C7.32392 2.02133 5.75971 3.03715 4.45938 4.36804C3.13881 5.66837 2.11306 7.2429 1.4627 8.9698C0.822652 10.6257 0.375849 12.5149 0.254029 15.2778C0.121893 18.0614 0.0913391 18.9451 0.0913391 26.0051C0.0913391 33.0651 0.121893 33.9487 0.243713 36.722C0.365532 39.485 0.812732 41.3845 1.45278 43.0304C2.11306 44.7776 3.13881 46.3418 4.45938 47.6421C5.75971 48.9627 7.33424 49.9888 9.06113 50.6388C10.717 51.2789 12.6062 51.7257 15.3696 51.8475C18.1424 51.9697 19.0265 51.9998 26.0865 51.9998C33.1465 51.9998 34.0301 51.9697 36.8034 51.8475C39.5664 51.7257 41.4659 51.2789 43.1114 50.6388C46.6061 49.2877 49.3691 46.5247 50.7202 43.0304C51.3598 41.3746 51.807 39.485 51.9289 36.722C52.0507 33.9487 52.0812 33.0651 52.0812 26.0051C52.0812 18.9451 52.0709 18.0614 51.9491 15.2881ZM47.2664 36.5189C47.1545 39.0584 46.7279 40.4298 46.3724 41.344C45.4986 43.6094 43.7007 45.4073 41.4353 46.2811C40.5211 46.6366 39.1398 47.0632 36.6102 47.1747C33.8675 47.2969 33.0449 47.3271 26.1067 47.3271C19.1686 47.3271 18.3357 47.2969 15.6029 47.1747C13.0633 47.0632 11.692 46.6366 10.7777 46.2811C9.65039 45.8644 8.62425 45.2041 7.79136 44.3407C6.92791 43.4975 6.26762 42.4817 5.85098 41.3543C5.49544 40.4401 5.06887 39.0584 4.95737 36.5292C4.83515 33.7864 4.805 32.9635 4.805 26.0253C4.805 19.0872 4.83515 18.2543 4.95737 15.5219C5.06887 12.9823 5.49544 11.6109 5.85098 10.6967C6.26762 9.56898 6.92791 8.54323 7.80167 7.70994C8.64449 6.84649 9.66031 6.18621 10.788 5.76996C11.7023 5.41442 13.084 4.98785 15.6132 4.87595C18.3559 4.75413 19.1789 4.72358 26.1166 4.72358C33.0651 4.72358 33.8877 4.75413 36.6205 4.87595C39.16 4.98785 40.5314 5.41442 41.4456 5.76996C42.573 6.18621 43.5991 6.84649 44.432 7.70994C45.2955 8.55315 45.9557 9.56898 46.3724 10.6967C46.7279 11.6109 47.1545 12.9922 47.2664 15.5219C47.3882 18.2646 47.4188 19.0872 47.4188 26.0253C47.4188 32.9635 47.3882 33.7761 47.2664 36.5189Z" fill="white"/>
<path id="Vector_2" d="M26.0964 12.647C18.7218 12.647 12.7383 18.63 12.7383 26.0051C12.7383 33.3801 18.7218 39.3631 26.0964 39.3631C33.4715 39.3631 39.4545 33.3801 39.4545 26.0051C39.4545 18.63 33.4715 12.647 26.0964 12.647ZM26.0964 34.6701C21.3121 34.6701 17.4314 30.7897 17.4314 26.0051C17.4314 21.2204 21.3121 17.34 26.0964 17.34C30.8811 17.34 34.7615 21.2204 34.7615 26.0051C34.7615 30.7897 30.8811 34.6701 26.0964 34.6701Z" fill="white"/>
<path id="Vector_3" d="M43.1016 12.119C43.1016 13.8411 41.7052 15.2375 39.9827 15.2375C38.2605 15.2375 36.8642 13.8411 36.8642 12.119C36.8642 10.3965 38.2605 9.00049 39.9827 9.00049C41.7052 9.00049 43.1016 10.3965 43.1016 12.119Z" fill="white"/>
</g>
<defs>
<clipPath id="clip0_39_57">
<rect width="52" height="52" fill="white"/>
</clipPath>
</defs>
</svg>
