<svg width="52" height="52" viewBox="0 0 52 52" fill="none" xmlns="http://www.w3.org/2000/svg">
<g id="whatsapp (1) 1">
<path id="Vector" fill-rule="evenodd" clip-rule="evenodd" d="M43.2443 8.68419C38.6835 4.11804 32.618 1.60229 26.1562 1.59961C12.841 1.59961 2.00437 12.4359 1.99902 25.7547C1.99723 30.0123 3.10946 34.1684 5.22353 37.8318L1.79639 50.3496L14.6025 46.9903C18.1311 48.9151 22.1036 49.9295 26.1464 49.9307H26.1565C39.4702 49.9307 50.308 39.0934 50.3131 25.7741C50.3158 19.3191 47.8054 13.25 43.2443 8.68419ZM26.1562 45.851H26.1479C22.5452 45.8495 19.0118 44.8813 15.9286 43.0523L15.1958 42.617L7.59646 44.6105L9.62483 37.2013L9.14727 36.4417C7.13734 33.2449 6.076 29.5499 6.07778 25.7562C6.08195 14.686 15.0893 5.67956 26.1642 5.67956C31.5272 5.68135 36.5685 7.77251 40.3593 11.5677C44.15 15.3629 46.2364 20.4075 46.2346 25.7726C46.2299 36.8437 37.2231 45.851 26.1562 45.851ZM37.1696 30.8133C36.5662 30.511 33.5984 29.0512 33.045 28.8495C32.4922 28.6481 32.0893 28.5478 31.6873 29.1518C31.2847 29.7558 30.1282 31.1156 29.7759 31.5182C29.4236 31.9211 29.0719 31.9717 28.4681 31.6693C27.8644 31.3673 25.9197 30.7297 23.614 28.6733C21.8198 27.0728 20.6085 25.0962 20.2562 24.4922C19.9045 23.8876 20.2532 23.5924 20.521 23.2604C21.1744 22.449 21.8287 21.5983 22.0298 21.1957C22.2313 20.7928 22.1304 20.4402 21.9793 20.1382C21.8287 19.8362 20.6215 16.8652 20.1187 15.6563C19.6283 14.4798 19.1311 14.6387 18.7604 14.6202C18.4087 14.6027 18.0061 14.5991 17.6035 14.5991C17.2013 14.5991 16.5472 14.75 15.9938 15.3546C15.4407 15.9589 13.8815 17.419 13.8815 20.39C13.8815 23.361 16.0444 26.2311 16.3461 26.634C16.6478 27.0368 20.6025 33.1336 26.6573 35.7478C28.0974 36.3703 29.2215 36.7413 30.0984 37.0195C31.5445 37.4789 32.8599 37.4141 33.9001 37.2588C35.06 37.0853 37.471 35.7984 37.9744 34.3886C38.4773 32.9785 38.4773 31.7702 38.3261 31.5182C38.1756 31.2665 37.773 31.1156 37.1696 30.8133Z" fill="white"/>
</g>
</svg>
